<svg xmlns="http://www.w3.org/2000/svg" viewBox="0 0 320 280" role="img" aria-label="Study books">
  <defs>
    <linearGradient id="cover" x1="86" y1="33" x2="218" y2="178" gradientUnits="userSpaceOnUse">
      <stop stop-color="#1F3E68"/>
      <stop offset=".54" stop-color="#0F2746"/>
      <stop offset="1" stop-color="#09192F"/>
    </linearGradient>
    <linearGradient id="edge" x1="126" y1="54" x2="250" y2="181" gradientUnits="userSpaceOnUse">
      <stop stop-color="#FFFFFF"/>
      <stop offset="1" stop-color="#E8EEF8"/>
    </linearGradient>
    <linearGradient id="blueBook" x1="86" y1="157" x2="227" y2="229" gradientUnits="userSpaceOnUse">
      <stop stop-color="#77CFFF"/>
      <stop offset="1" stop-color="#168CFF"/>
    </linearGradient>
    <linearGradient id="goldBook" x1="94" y1="191" x2="249" y2="245" gradientUnits="userSpaceOnUse">
      <stop stop-color="#FFE2A3"/>
      <stop offset="1" stop-color="#FF9F1A"/>
    </linearGradient>
    <filter id="shadow" x="-25%" y="-25%" width="150%" height="165%">
      <feDropShadow dx="0" dy="24" stdDeviation="17" flood-color="#12233D" flood-opacity=".22"/>
    </filter>
  </defs>
  <ellipse cx="164" cy="248" rx="102" ry="17" fill="#1D2939" opacity=".12"/>
  <g filter="url(#shadow)">
    <path d="M111 64c0-15 12-28 27-28h77c20 0 36 16 36 36v101c0 9-7 16-16 16H111V64Z" fill="url(#edge)"/>
    <path d="M88 66c0-16 13-30 30-30h84c20 0 36 16 36 36v104c0 10-8 18-18 18H88V66Z" fill="url(#cover)"/>
    <path d="M209 49c14 7 23 20 23 37v91c0 10-8 18-18 18h-21V72c0-12 6-20 16-23Z" fill="#08162A" opacity=".44"/>
    <path d="M122 68h58M122 170h69" stroke="#FFFFFF" stroke-width="5" stroke-linecap="round" opacity=".15"/>
    <path d="M142 111c12 5 21 12 27 24 10-24 23-36 42-40-12 26-24 43-42 50-15-7-24-18-27-34Z" fill="#F6B042"/>
    <path d="M83 157h147c13 0 24 11 24 24v13H83c-13 0-24-11-24-24s11-13 24-13Z" fill="url(#blueBook)"/>
    <path d="M73 184h168c13 0 24 11 24 24v12H73c-13 0-24-11-24-24s11-12 24-12Z" fill="#FFFFFF"/>
    <path d="M84 209h154c14 0 25 11 25 25v9H84c-14 0-25-11-25-25s11-9 25-9Z" fill="url(#goldBook)"/>
    <path d="M72 189h177M86 215h160" stroke="#D8E4F2" stroke-width="5" opacity=".9"/>
    <path d="M64 79h34M64 111h34M64 143h34M57 189h34M52 218h36" stroke="#C6843E" stroke-width="8" stroke-linecap="round"/>
    <path d="M69 71 46 221M99 71 76 221" stroke="#B97730" stroke-width="10" stroke-linecap="round"/>
    <path d="M270 151c-6-36 5-61 33-76" stroke="#58B368" stroke-width="8" stroke-linecap="round"/>
    <path d="M258 111c21-7 39-1 51 18-22 6-39 0-51-18Z" fill="#63D47A"/>
    <path d="M277 82c19 8 29 25 29 49-21-8-30-24-29-49Z" fill="#8BE58F"/>
    <path d="M246 226c-20-16-47-18-82-5" stroke="#344054" stroke-width="6" stroke-linecap="round" opacity=".55"/>
    <circle cx="178" cy="222" r="16" fill="none" stroke="#344054" stroke-width="6" opacity=".58"/>
    <circle cx="236" cy="222" r="16" fill="none" stroke="#344054" stroke-width="6" opacity=".58"/>
    <path d="M116 238l128-39" stroke="#F59E0B" stroke-width="9" stroke-linecap="round"/>
    <path d="M101 243l17-5" stroke="#168CFF" stroke-width="9" stroke-linecap="round"/>
  </g>
</svg>
