<svg xmlns="http://www.w3.org/2000/svg" viewBox="0 0 240 220" role="img" aria-label="Calendar event">
  <defs>
    <linearGradient id="cal" x1="50" y1="32" x2="184" y2="196" gradientUnits="userSpaceOnUse">
      <stop offset="0" stop-color="#FFFFFF"/>
      <stop offset="1" stop-color="#DCEBFF"/>
    </linearGradient>
    <linearGradient id="top" x1="55" y1="28" x2="188" y2="94" gradientUnits="userSpaceOnUse">
      <stop offset="0" stop-color="#5CC3FF"/>
      <stop offset="1" stop-color="#126BE8"/>
    </linearGradient>
    <filter id="c" x="-30%" y="-30%" width="160%" height="170%">
      <feDropShadow dx="0" dy="18" stdDeviation="12" flood-color="#123E89" flood-opacity=".18"/>
    </filter>
  </defs>
  <ellipse cx="121" cy="190" rx="70" ry="15" fill="#123E89" opacity=".11"/>
  <g filter="url(#c)">
    <rect x="48" y="45" width="145" height="135" rx="24" fill="url(#cal)"/>
    <path d="M48 69c0-13 11-24 24-24h97c13 0 24 11 24 24v27H48V69Z" fill="url(#top)"/>
    <path d="M82 34v28M159 34v28" stroke="#FFFFFF" stroke-width="11" stroke-linecap="round"/>
    <path d="M78 119h24M120 119h24M162 119h12M78 146h24M120 146h24M162 146h12" stroke="#B7C7DE" stroke-width="8" stroke-linecap="round"/>
    <circle cx="143" cy="146" r="22" fill="#22C55E"/>
    <path d="m132 146 8 8 15-18" stroke="#FFFFFF" stroke-width="6" stroke-linecap="round" stroke-linejoin="round"/>
  </g>
</svg>
