<svg xmlns="http://www.w3.org/2000/svg" viewBox="0 0 260 240" role="img" aria-label="Class group">
  <defs>
    <linearGradient id="card" x1="44" y1="48" x2="212" y2="204" gradientUnits="userSpaceOnUse">
      <stop offset="0" stop-color="#65C7FF"/>
      <stop offset="1" stop-color="#096BEA"/>
    </linearGradient>
    <linearGradient id="face" x1="62" y1="42" x2="184" y2="174" gradientUnits="userSpaceOnUse">
      <stop offset="0" stop-color="#FFE1C3"/>
      <stop offset="1" stop-color="#D7864E"/>
    </linearGradient>
    <filter id="cg" x="-30%" y="-30%" width="160%" height="170%">
      <feDropShadow dx="0" dy="20" stdDeviation="14" flood-color="#063878" flood-opacity=".2"/>
    </filter>
  </defs>
  <ellipse cx="130" cy="205" rx="80" ry="17" fill="#063878" opacity=".12"/>
  <g filter="url(#cg)">
    <rect x="45" y="55" width="170" height="130" rx="30" fill="url(#card)"/>
    <path d="M74 148c7-31 26-47 56-47s49 16 56 47v21H74v-21Z" fill="#FFFFFF" opacity=".28"/>
    <circle cx="130" cy="89" r="34" fill="url(#face)"/>
    <path d="M101 80c12-26 46-33 67-9-16-1-28 5-38 16-9-8-18-10-29-7Z" fill="#29364E"/>
    <circle cx="82" cy="111" r="23" fill="#FFE1C3"/>
    <path d="M49 166c5-26 17-39 33-39s28 13 33 39v12H49v-12Z" fill="#DDEBFF"/>
    <circle cx="184" cy="111" r="23" fill="#FFE1C3"/>
    <path d="M151 166c5-26 17-39 33-39s28 13 33 39v12h-66v-12Z" fill="#E9DDFF"/>
    <path d="M73 195h114" stroke="#0B55C6" stroke-width="9" stroke-linecap="round" opacity=".28"/>
  </g>
</svg>
