<svg xmlns="http://www.w3.org/2000/svg" viewBox="0 0 220 220" role="img" aria-label="3D coins">
  <defs>
    <linearGradient id="gold" x1="48" y1="32" x2="168" y2="178" gradientUnits="userSpaceOnUse">
      <stop offset="0" stop-color="#FFE08A"/>
      <stop offset=".5" stop-color="#FFB229"/>
      <stop offset="1" stop-color="#D96F00"/>
    </linearGradient>
    <linearGradient id="side" x1="52" y1="72" x2="158" y2="142" gradientUnits="userSpaceOnUse">
      <stop offset="0" stop-color="#F7A30C"/>
      <stop offset="1" stop-color="#B95D00"/>
    </linearGradient>
    <filter id="s" x="-30%" y="-30%" width="160%" height="170%">
      <feDropShadow dx="0" dy="15" stdDeviation="11" flood-color="#914300" flood-opacity=".22"/>
    </filter>
  </defs>
  <ellipse cx="112" cy="183" rx="67" ry="16" fill="#6A3900" opacity=".12"/>
  <g filter="url(#s)">
    <g transform="translate(45 84)">
      <path d="M0 16c0-11 24-20 54-20s54 9 54 20v20c0 11-24 20-54 20S0 47 0 36V16Z" fill="url(#side)"/>
      <ellipse cx="54" cy="16" rx="54" ry="20" fill="url(#gold)"/>
      <ellipse cx="54" cy="16" rx="34" ry="11" fill="#FFD36B" opacity=".72"/>
      <path d="M38 14h32M54 6v20" stroke="#C77500" stroke-width="6" stroke-linecap="round" opacity=".45"/>
    </g>
    <g transform="translate(63 54)">
      <path d="M0 16c0-10 22-18 49-18s49 8 49 18v19c0 10-22 18-49 18S0 45 0 35V16Z" fill="url(#side)"/>
      <ellipse cx="49" cy="16" rx="49" ry="18" fill="url(#gold)"/>
      <ellipse cx="49" cy="16" rx="30" ry="10" fill="#FFE297" opacity=".72"/>
    </g>
    <g transform="translate(88 116)">
      <path d="M0 14c0-9 20-16 44-16s44 7 44 16v17c0 9-20 16-44 16S0 40 0 31V14Z" fill="url(#side)"/>
      <ellipse cx="44" cy="14" rx="44" ry="16" fill="url(#gold)"/>
      <path d="M31 13h26M44 6v17" stroke="#C77500" stroke-width="5" stroke-linecap="round" opacity=".42"/>
    </g>
  </g>
</svg>
