<svg xmlns="http://www.w3.org/2000/svg" viewBox="0 0 260 240" role="img" aria-label="Gift box">
  <defs>
    <linearGradient id="box" x1="64" y1="62" x2="196" y2="204" gradientUnits="userSpaceOnUse">
      <stop offset="0" stop-color="#FFAFD3"/>
      <stop offset=".5" stop-color="#C174FF"/>
      <stop offset="1" stop-color="#6447E8"/>
    </linearGradient>
    <linearGradient id="ribbon" x1="66" y1="42" x2="190" y2="182" gradientUnits="userSpaceOnUse">
      <stop offset="0" stop-color="#DDF4FF"/>
      <stop offset=".5" stop-color="#8AC7FF"/>
      <stop offset="1" stop-color="#2D64E8"/>
    </linearGradient>
    <filter id="g" x="-30%" y="-30%" width="160%" height="170%">
      <feDropShadow dx="0" dy="20" stdDeviation="14" flood-color="#3F2AA8" flood-opacity=".24"/>
    </filter>
  </defs>
  <ellipse cx="130" cy="204" rx="76" ry="16" fill="#3F2AA8" opacity=".13"/>
  <g filter="url(#g)">
    <path d="M59 96h142v84c0 13-11 24-24 24H83c-13 0-24-11-24-24V96Z" fill="url(#box)"/>
    <path d="M48 76h164v37H48z" fill="#D993FF"/>
    <path d="M113 76h34v128h-34z" fill="url(#ribbon)"/>
    <path d="M48 76h164v18H48z" fill="#FFFFFF" opacity=".2"/>
    <path d="M98 68c-30-9-32-34-16-42 19-10 38 16 48 50-12 0-22-3-32-8Z" fill="url(#ribbon)"/>
    <path d="M162 68c30-9 32-34 16-42-19-10-38 16-48 50 12 0 22-3 32-8Z" fill="#A9D8FF"/>
    <path d="M118 64c-18-15-27-25-31-34M143 64c17-16 27-27 31-34" stroke="#FFFFFF" stroke-width="5" stroke-linecap="round" opacity=".38"/>
    <path d="M78 116h34M156 116h28M78 142h28M162 142h20" stroke="#FFFFFF" stroke-width="5" stroke-linecap="round" opacity=".22"/>
  </g>
</svg>
