<svg xmlns="http://www.w3.org/2000/svg" viewBox="0 0 260 240" role="img" aria-label="Group plus">
  <defs>
    <linearGradient id="person" x1="56" y1="54" x2="201" y2="196" gradientUnits="userSpaceOnUse">
      <stop offset="0" stop-color="#EEF7FF"/>
      <stop offset=".45" stop-color="#A6BBFF"/>
      <stop offset="1" stop-color="#6556D9"/>
    </linearGradient>
    <linearGradient id="plus" x1="120" y1="116" x2="198" y2="201" gradientUnits="userSpaceOnUse">
      <stop offset="0" stop-color="#9BE7FF"/>
      <stop offset="1" stop-color="#168CFF"/>
    </linearGradient>
    <filter id="p" x="-30%" y="-30%" width="160%" height="170%">
      <feDropShadow dx="0" dy="20" stdDeviation="14" flood-color="#3740A0" flood-opacity=".2"/>
    </filter>
  </defs>
  <ellipse cx="132" cy="203" rx="80" ry="18" fill="#3740A0" opacity=".12"/>
  <g filter="url(#p)">
    <circle cx="72" cy="93" r="28" fill="url(#person)"/>
    <path d="M33 169c6-30 22-45 39-45s33 15 39 45v16H33v-16Z" fill="url(#person)"/>
    <circle cx="185" cy="93" r="28" fill="url(#person)" opacity=".86"/>
    <path d="M146 169c6-30 22-45 39-45s33 15 39 45v16h-78v-16Z" fill="url(#person)" opacity=".86"/>
    <circle cx="130" cy="78" r="36" fill="url(#person)"/>
    <path d="M76 177c8-39 30-58 54-58s46 19 54 58v18H76v-18Z" fill="url(#person)"/>
    <circle cx="170" cy="170" r="35" fill="url(#plus)" stroke="#FFFFFF" stroke-width="6"/>
    <path d="M170 152v36M152 170h36" stroke="#FFFFFF" stroke-width="8" stroke-linecap="round"/>
  </g>
</svg>
