<svg xmlns="http://www.w3.org/2000/svg" viewBox="0 0 300 240" role="img" aria-label="Library books">
  <defs>
    <linearGradient id="b1" x1="76" y1="54" x2="223" y2="199" gradientUnits="userSpaceOnUse">
      <stop offset="0" stop-color="#68C8FF"/>
      <stop offset="1" stop-color="#1569E9"/>
    </linearGradient>
    <linearGradient id="b2" x1="70" y1="82" x2="231" y2="206" gradientUnits="userSpaceOnUse">
      <stop offset="0" stop-color="#FFF3D2"/>
      <stop offset="1" stop-color="#F4A23C"/>
    </linearGradient>
    <filter id="l" x="-25%" y="-30%" width="150%" height="170%">
      <feDropShadow dx="0" dy="20" stdDeviation="14" flood-color="#26364E" flood-opacity=".18"/>
    </filter>
  </defs>
  <ellipse cx="151" cy="211" rx="94" ry="16" fill="#344054" opacity=".11"/>
  <g filter="url(#l)">
    <path d="M70 150h160c12 0 21 9 21 21s-9 21-21 21H70c-12 0-21-9-21-21s9-21 21-21Z" fill="#9DD06F"/>
    <path d="M75 126h151c12 0 22 10 22 22v10H75c-12 0-22-10-22-22s10-10 22-10Z" fill="#FFFFFF"/>
    <path d="M63 103h166c12 0 22 10 22 22v12H63c-12 0-22-10-22-22s10-12 22-12Z" fill="url(#b2)"/>
    <path d="M82 80h153c12 0 22 10 22 22v11H82c-12 0-22-10-22-22s10-11 22-11Z" fill="#FFFFFF"/>
    <path d="M72 57h157c12 0 22 10 22 22v12H72c-12 0-22-10-22-22s10-12 22-12Z" fill="url(#b1)"/>
    <path d="M74 132h165M62 109h177M78 86h165" stroke="#DDE6F1" stroke-width="5" opacity=".86"/>
    <path d="M100 197 153 74" stroke="#A56A2A" stroke-width="10" stroke-linecap="round"/>
    <path d="M118 197 171 74" stroke="#C98A3B" stroke-width="8" stroke-linecap="round"/>
    <path d="M89 153h75M80 176h72" stroke="#FFFFFF" stroke-width="5" stroke-linecap="round" opacity=".35"/>
    <path d="M39 159c-9-22-2-38 19-49" stroke="#54B563" stroke-width="7" stroke-linecap="round"/>
    <path d="M31 134c15-6 28-2 36 11-15 5-27 2-36-11Z" fill="#64D67B"/>
    <circle cx="35" cy="178" r="10" fill="#7DDC87"/>
  </g>
</svg>
