<svg xmlns="http://www.w3.org/2000/svg" viewBox="0 0 220 170" role="img" aria-label="Podium 3D">
  <defs>
    <linearGradient id="pBlue" x1="52" x2="146" y1="32" y2="150" gradientUnits="userSpaceOnUse">
      <stop stop-color="#5DB6FF"/>
      <stop offset="1" stop-color="#006DFF"/>
    </linearGradient>
    <linearGradient id="pGold" x1="92" x2="166" y1="14" y2="150" gradientUnits="userSpaceOnUse">
      <stop stop-color="#FFE58A"/>
      <stop offset="1" stop-color="#FF8A00"/>
    </linearGradient>
    <linearGradient id="pPurple" x1="140" x2="210" y1="50" y2="150" gradientUnits="userSpaceOnUse">
      <stop stop-color="#A78BFA"/>
      <stop offset="1" stop-color="#6D28D9"/>
    </linearGradient>
  </defs>
  <ellipse cx="112" cy="150" rx="92" ry="13" fill="#DCE7F8"/>
  <path d="M28 82h58v62H28z" fill="url(#pBlue)"/>
  <path d="M86 54h60v90H86z" fill="url(#pGold)"/>
  <path d="M146 94h50v50h-50z" fill="url(#pPurple)"/>
  <path d="M28 82 47 68h58L86 82H28Z" fill="#BFE3FF"/>
  <path d="M86 54 106 38h60l-20 16H86Z" fill="#FFF0A8"/>
  <path d="M146 94 164 80h50l-18 14h-50Z" fill="#DDD6FE"/>
  <path d="M86 82 105 68v76H86V82Z" fill="#075FDA" opacity=".35"/>
  <path d="M146 54 166 38v90l-20 16V54Z" fill="#C56B00" opacity=".35"/>
  <text x="57" y="121" text-anchor="middle" font-family="Inter,Arial,sans-serif" font-size="28" font-weight="900" fill="#fff">2</text>
  <text x="116" y="112" text-anchor="middle" font-family="Inter,Arial,sans-serif" font-size="34" font-weight="900" fill="#fff">1</text>
  <text x="171" y="126" text-anchor="middle" font-family="Inter,Arial,sans-serif" font-size="25" font-weight="900" fill="#fff">3</text>
</svg>
