<svg xmlns="http://www.w3.org/2000/svg" viewBox="0 0 260 240" role="img" aria-label="Exam paper">
  <defs>
    <linearGradient id="paper" x1="68" y1="26" x2="190" y2="210" gradientUnits="userSpaceOnUse">
      <stop offset="0" stop-color="#FFFFFF"/>
      <stop offset="1" stop-color="#DDEAFF"/>
    </linearGradient>
    <linearGradient id="pen" x1="154" y1="124" x2="221" y2="199" gradientUnits="userSpaceOnUse">
      <stop offset="0" stop-color="#FFC56C"/>
      <stop offset=".45" stop-color="#FF8F2A"/>
      <stop offset="1" stop-color="#7444E8"/>
    </linearGradient>
    <filter id="e" x="-30%" y="-30%" width="160%" height="170%">
      <feDropShadow dx="0" dy="20" stdDeviation="14" flood-color="#16356F" flood-opacity=".2"/>
    </filter>
  </defs>
  <ellipse cx="132" cy="204" rx="80" ry="17" fill="#16356F" opacity=".12"/>
  <g filter="url(#e)">
    <path d="M83 31h79l39 39v113c0 13-10 23-23 23H83c-13 0-23-10-23-23V54c0-13 10-23 23-23Z" fill="url(#paper)"/>
    <path d="M162 31v40h39" fill="#BBD7FF"/>
    <path d="M88 139h72M88 160h59M88 181h77" stroke="#B9C7DE" stroke-width="5" stroke-linecap="round"/>
    <text x="84" y="111" font-family="Inter, Arial, sans-serif" font-size="52" font-weight="900" fill="#168CFF">A+</text>
    <path d="M164 177 213 89c5-8 16-11 24-6s10 16 6 24l-49 88-34 14 4-32Z" fill="url(#pen)"/>
    <path d="M213 89 242 106" stroke="#FFFFFF" stroke-width="7" opacity=".45"/>
    <path d="M165 177 194 194" stroke="#673BBE" stroke-width="7"/>
    <path d="M161 209 176 186" stroke="#334155" stroke-width="6" stroke-linecap="round"/>
  </g>
</svg>
